<svg fill="none" stroke="" viewBox="0 0 48 48" width="48" height="48"><svg width="48" height="48" viewBox="0 0 48 48" fill="none" xmlns="http://www.w3.org/2000/svg"><path d="M36.4322 27.8373C37.9531 28.285 39.571 27.4147 39.7966 25.8455C40.2602 22.6202 39.9306 19.315 38.8165 16.2222C37.3766 12.2247 34.701 8.78968 31.1776 6.41504C27.6542 4.0404 23.4661 2.84958 19.2204 3.0152C14.9747 3.18082 10.8921 4.69428 7.56438 7.33618C4.23666 9.97808 1.83679 13.6111 0.712662 17.7086C-0.411468 21.8061 -0.201437 26.1552 1.31231 30.1253C2.82606 34.0954 5.56485 37.4803 9.13166 39.7893C11.8913 41.5757 15.0356 42.6462 18.2819 42.9261C19.8614 43.0623 21.0759 41.6838 20.9848 40.1011C20.8936 38.5183 19.5256 37.3389 17.9566 37.1117C15.9338 36.8188 13.9861 36.0926 12.2515 34.9698C9.70856 33.3236 7.75596 30.9104 6.67675 28.0799C5.59753 25.2495 5.44779 22.1489 6.24923 19.2276C7.05067 16.3063 8.76164 13.7161 11.1341 11.8326C13.5066 9.94907 16.4173 8.87006 19.4442 8.75198C22.4711 8.6339 25.457 9.48289 27.969 11.1759C30.481 12.8689 32.3885 15.3178 33.4151 18.1678C34.1153 20.1118 34.3809 22.1735 34.2074 24.2101C34.0729 25.7897 34.9114 27.3896 36.4322 27.8373Z" fill="#335AA5"></path><path d="M22.9543 37.7931C21.8269 36.8729 21.6769 35.2343 22.6192 34.1334C23.5615 33.0324 25.2393 32.8859 26.3667 33.8061L33.2298 39.4083C34.3571 40.3285 34.5072 41.967 33.5649 43.068C32.6226 44.169 30.9448 44.3155 29.8174 43.3953L22.9543 37.7931Z" fill="#C2CEE4"></path><path d="M39.4395 29.7796C40.4679 28.7548 42.1523 28.7382 43.2017 29.7425C44.2511 30.7469 44.2681 32.3919 43.2397 33.4167L33.4021 43.2199C32.3736 44.2448 30.6892 44.2614 29.6399 43.257C28.5905 42.2527 28.5735 40.6077 29.6019 39.5829L39.4395 29.7796Z" fill="#C2CEE4"></path><path d="M26.9109 37.7931C25.8348 36.8729 25.6916 35.2343 26.5911 34.1334C27.4905 33.0324 29.092 32.8859 30.1682 33.8061L36.7193 39.4083C37.7955 40.3285 37.9387 41.967 37.0392 43.068C36.1397 44.169 34.5382 44.3155 33.4621 43.3953L26.9109 37.7931Z" fill="#335AA5"></path><path d="M42.6468 29.7796C43.6285 28.7548 45.2363 28.7382 46.238 29.7425C47.2397 30.7469 47.2559 32.3919 46.2742 33.4167L36.8838 43.2199C35.9021 44.2448 34.2943 44.2614 33.2926 43.257C32.2909 42.2527 32.2747 40.6077 33.2563 39.5829L42.6468 29.7796Z" fill="#335AA5"></path></svg></svg>